# xmcd CD database file
# Copyright (C) 1993-1998 Ti Kan
# Generated: Wed Feb 18 17:13:56 1998 by KSCD
# 
# Track frame offsets:
#       150
#       22435
#       59170
#       77077
#       104590
#       123512
#       156442
#       174480
#       195850
#
# Disc length: 2966 seconds
#
# Revision: 3
# Processed by: cddbd v1.4b41PL1 Copyright (c) Steve Scherf et al.
# Submitted via: Kscd 0.8.0
#
DISCID=7f0b9409
DTITLE=Marsh, Don Orchestra (featuring the Panpipes) - Beside Still Waters --
DYEAR=1900
DGENRE=
TTITLE0=How Great Thou Art
TTITLE1=Medley: What a Friend We Have in Jesus - Sweet Hour of Prayer - I Must
TTITLE1=Tell Jesus - I'd Rather Have Jesus
TTITLE2=Great Is Thy Faithfulness
TTITLE3=Medley: There is a Balm in Gilead - Amazing Grace - He Lifted Me
TTITLE4=Medley: Blessed Assurance - To God Be the Glory
TTITLE5=Medley: O, How I Love Jesus - 'Tis So Sweet To Trust In Jesus - Just A
TTITLE5=Closer Walk With Thee - Victory In Jesus
TTITLE6=Ho, Everyone That is Thirsty
TTITLE7=Medley: How Firm a Foundation - My Faith Has Found A Resting Place - H
TTITLE7=aven Of Rest
TTITLE8=Medley: Moment by Moment - Day By Day - God Will Take Care Of You
EXTD=
EXTT0=
EXTT1=
EXTT2=
EXTT3=
EXTT4=
EXTT5=
EXTT6=
EXTT7=
EXTT8=
PLAYORDER=
